<svg id="Layer_1" data-name="Layer 1" xmlns="http://www.w3.org/2000/svg" viewBox="0 0 504 144"><defs><style>.cls-1{fill:#d5d1dc;}.cls-2{fill:#8f7d60;}</style></defs><path class="cls-1" d="M172.12,69.21l-.15.07c-1.2-5.13-3.18-7-7.45-7h-5V74.68h4.39c4,0,4.87-1.12,5.39-3.33h.15v7.87h-.15c-.52-2.55-1.42-4-5.39-4h-4.39V83c0,4.5.75,5.44,2.18,5.81v.15h-7.16v-.15c1.13-.33,1.8-1.27,1.8-5.28V67.26c0-4-.67-5-1.8-5.29v-.15h17.23Z"/><path class="cls-1" d="M188.61,88.81v.11h-7.12v-.11c1.46-.45,1.91-1.08,1.91-4.12V75c0-3.26-.53-4.16-1.84-4.65l0-.07a13.09,13.09,0,0,0,5-1.39l.08.07a33.24,33.24,0,0,0-.34,6v9.67C186.32,87.65,186.92,88.44,188.61,88.81Zm5.88-19.34-.6,2.44h-.11a3.2,3.2,0,0,0-2.25-.64c-1.72,0-3.67,1-4.42,4l0,0c.34-3.86,2.66-6.37,5.47-6.37A3.48,3.48,0,0,1,194.49,69.47Z"/><path class="cls-1" d="M211.91,88.81v.11H205.2v-.11c1.46-.45,1.91-1.08,1.91-4.12V75c0-3.26-.52-4.16-1.83-4.65l0-.07a13.2,13.2,0,0,0,5-1.39l.07.07a33.24,33.24,0,0,0-.34,6v9.67C210,87.76,210.52,88.44,211.91,88.81Zm-5.62-24.74a2.16,2.16,0,0,1,4.27,0,2.17,2.17,0,0,1-4.27,0Z"/><path class="cls-1" d="M242.89,87.91V88a13.41,13.41,0,0,0-4.68,1.16l0,0V76.18c0-4.83-2-6.78-5.17-6.78-3.45,0-6,3-6,9.48,0,5.77,2.32,8.54,5.77,8.54a5.29,5.29,0,0,0,4.57-3.07l0,0a6.59,6.59,0,0,1-6.14,4.76c-4.46,0-7.42-3.9-7.42-9.26,0-7.68,4.27-11,9.18-11A7,7,0,0,1,238.17,71V65.05c0-3.26-.56-4.2-1.87-4.65l.07-.11a12.73,12.73,0,0,0,5-1.35l0,0a38.89,38.89,0,0,0-.34,6.07V83.38C241.05,86.75,241.62,87.5,242.89,87.91Z"/><path class="cls-1" d="M271.1,84.58a7.41,7.41,0,0,1-7.19,4.57c-5.43,0-9.22-4.31-9.22-10.12,0-6,3.82-10.12,9-10.12a6.87,6.87,0,0,1,7.3,7.16,5.29,5.29,0,0,1-.15,1.39H257.69c0,5.92,3.48,9.33,8,9.33A6.56,6.56,0,0,0,271,84.5ZM257.69,77h10.45a7.4,7.4,0,0,0,.15-1.72c0-3.45-1.38-5.88-4.64-5.88S257.84,72.47,257.69,77Z"/><path class="cls-1" d="M288.71,88.81v.11h-6.78v-.11c1.46-.45,1.91-1.08,1.91-4.12V75c0-3.26-.52-4.16-1.84-4.65l0-.07a13.7,13.7,0,0,0,5-1.39l.08.07a33.24,33.24,0,0,0-.34,6v9.67C286.76,87.65,287.29,88.44,288.71,88.81Zm13.07,0v.11H295v-.11c1.43-.37,2-1.16,2-4.12V76.37c0-3.83-1.76-5.74-4.68-5.74a5.55,5.55,0,0,0-4.76,3.08l0,0a6.85,6.85,0,0,1,6.37-4.76c3.78,0,6,2.59,6,6.41v9.37C299.87,87.73,300.32,88.36,301.78,88.81Z"/><path class="cls-1" d="M321.3,88.81v.11h-6.7v-.11c1.38-.45,1.83-1,1.83-4.12V75c0-3.26-.52-4.16-1.83-4.65l0-.07a13.14,13.14,0,0,0,5-1.39l.07.07a33.24,33.24,0,0,0-.34,6v9.67C319.35,87.65,319.88,88.44,321.3,88.81Zm12.7,0v.11h-6.85v-.11c1.42-.37,2-1.16,2-4.12V76.37c0-3.83-1.61-5.74-4.27-5.74a5.55,5.55,0,0,0-4.72,3.08l0,0a6.83,6.83,0,0,1,6.3-4.76c3.59,0,5.62,2.59,5.62,6.41v9.37C332,87.61,332.5,88.36,334,88.81Zm12.55,0v.11h-6.7v-.11c1.42-.37,2-1.16,2-4.12V76.37c0-3.83-1.61-5.74-4.27-5.74a5.55,5.55,0,0,0-4.72,3.08l0,0a6.79,6.79,0,0,1,6.3-4.76c3.56,0,5.62,2.59,5.62,6.41v9.37C344.72,87.84,345.17,88.36,346.55,88.81Z"/><path class="cls-1" d="M374.28,87.91V88a13.47,13.47,0,0,0-4.65,1.16l-.07,0V78.58l-7.91,2.29a4.46,4.46,0,0,0-.56,2.24c0,3,1.87,4.24,3.93,4.24a4.08,4.08,0,0,0,3.86-2.25l.08,0a5.34,5.34,0,0,1-5.36,4,5.05,5.05,0,0,1-5.36-5.1,4.87,4.87,0,0,1,.9-2.92L369.56,78V76.74c0-5.21-1.39-7.34-4.31-7.34-2.32,0-4.68,1.76-4.83,6.86l-.08,0-1.16-5.1a9.11,9.11,0,0,1,6.07-2.28c4.46,0,7.23,2.66,7.23,8v6.45C372.48,86.75,373,87.5,374.28,87.91Z"/><path class="cls-1" d="M392.64,88.81v.11h-6.75v-.11c1.43-.45,1.88-1.08,1.88-4.12V65.05c0-3.26-.53-4.2-1.84-4.65l0-.11a12.44,12.44,0,0,0,5-1.35l.07,0a39.57,39.57,0,0,0-.33,6.07V84.69C390.69,87.76,391.21,88.44,392.64,88.81Zm13,0v.11h-5.09a1.05,1.05,0,0,0-.3-.89l-8.17-9.3,5.47-5.44c1.72-1.72,1.69-3.71-1.05-4v-.12h7v.12a10.78,10.78,0,0,0-4,2.84l-5,4.91,8.24,9.56C404,88.1,404.62,88.59,405.67,88.81Z"/><path class="cls-1" d="M430.17,84.58A7.4,7.4,0,0,1,423,89.15c-5.43,0-9.21-4.31-9.21-10.12,0-6,3.82-10.12,9-10.12a6.87,6.87,0,0,1,7.3,7.16,5.29,5.29,0,0,1-.15,1.39H416.76c0,5.92,3.49,9.33,8,9.33a6.56,6.56,0,0,0,5.32-2.29ZM416.76,77h10.45a6.89,6.89,0,0,0,.15-1.72c0-3.45-1.38-5.88-4.64-5.88S416.91,72.47,416.76,77Z"/><path class="cls-1" d="M448.87,88.81v.11h-7.12v-.11c1.46-.45,1.91-1.08,1.91-4.12V75c0-3.26-.52-4.16-1.83-4.65l0-.07a13.2,13.2,0,0,0,5-1.39l.07.07a33.24,33.24,0,0,0-.34,6v9.67C446.58,87.65,447.18,88.44,448.87,88.81Zm5.88-19.34-.6,2.44H454a3.19,3.19,0,0,0-2.25-.64c-1.72,0-3.67,1-4.42,4l0,0c.34-3.86,2.66-6.37,5.47-6.37A3.45,3.45,0,0,1,454.75,69.47Z"/><path class="cls-2" d="M113.49,69.61a1.17,1.17,0,0,0,1-1.42,1.41,1.41,0,0,0,0-.18,5,5,0,0,0,.37-.76c.19-.47.3-1.06,0-1.38a6.07,6.07,0,0,0-1.79-.57l-.56-.12-.06,0a2.14,2.14,0,0,1,.19.26,1.74,1.74,0,0,1,.24.62,1.63,1.63,0,0,1,0,.66l-.75-.17a1.6,1.6,0,0,0-.07-.57,1.54,1.54,0,0,0-.26-.51,1.9,1.9,0,0,0-.42-.38,2.92,2.92,0,0,0-.5-.25c-1.92-.39-3.6-.64-4.92-.86.13-.78.3-2.55.51-3.3a17.76,17.76,0,0,1,1.13-2.83,7.2,7.2,0,0,1,5-3.3,4.26,4.26,0,0,0-.84-.26,5.38,5.38,0,0,0-2.58.48,7.3,7.3,0,0,0-1.52,1,12.52,12.52,0,0,0-1.9,1.91h-.11a9.15,9.15,0,0,0-.7-1.4,12.61,12.61,0,0,0-4.42-4.4,42.77,42.77,0,0,1,3.35,5,4,4,0,0,1,.28,3.33c-.19.45-.61,2-.61,2-.34,0-1.39.4-6.16-3.4a25.57,25.57,0,0,1-6.13-5.54,7.05,7.05,0,0,1-1.26-5.07c.06-.9.38-2.79.38-2.79A6.69,6.69,0,0,0,89.21,51c0,.14.07.27.1.4a4.68,4.68,0,0,1-.07,1.31,1.82,1.82,0,0,1-1,1.24,3.41,3.41,0,0,0-.33.17,6,6,0,0,0-1.2,1.29c1.58-.75,2.93-1.11,4.63-.13A29.87,29.87,0,0,0,96,60.45a31.38,31.38,0,0,0-3.89.18c-1.75.18-3.46.45-5.16.74-.42-3.71-2.51-6.6-6.08-7.47a13.8,13.8,0,0,0-3.53,0A14.63,14.63,0,0,1,79,54.3,7.11,7.11,0,0,1,83.86,58a9.24,9.24,0,0,1,.8,3.72c-.49.07-1,.16-1.46.25-.33.07-.65.15-1,.25l-.19,0c-1.08.19-2.17.35-3.25.48a19.56,19.56,0,0,0-1.32-3.86c-1.59-3.1-3.85-5.31-7.34-5.36a8.36,8.36,0,0,0-2.29.28,9.75,9.75,0,0,0-2,1c.35-.09.7-.17,1.06-.23,4.53-.8,7,1.12,8.67,5.11a20.47,20.47,0,0,1,.84,3.05h-1.6c-.71,0-1.41,0-2.12,0l-1.07,0-.25,0a9.05,9.05,0,0,1-3.7-1.5,8.15,8.15,0,0,1-1.73-1.69,11.52,11.52,0,0,1-1.26-2.16,12.27,12.27,0,0,0,.8,2.46,7.63,7.63,0,0,0,1.41,1.8c.15.89-.39,1.54-1,2.26a4.7,4.7,0,0,0-1.5,1.17,2.6,2.6,0,0,0-.55,1.07A2.9,2.9,0,0,0,64,67.33a3.72,3.72,0,0,1,1.08-1.55,4,4,0,0,1,.75-.52,6.18,6.18,0,0,1,.87-.38,11.53,11.53,0,0,1,3.91-.63,58.36,58.36,0,0,1,6.47.52c-1,.63-2,1.3-3,2-2.52,1.7-5.66,3.83-8.43,4.74A8.64,8.64,0,0,1,57.21,70,15.43,15.43,0,0,1,55,67.76a26.05,26.05,0,0,1-1.85-2.69,9.24,9.24,0,0,0,.21,1.72,12.19,12.19,0,0,0,.65,1.6,10.72,10.72,0,0,0,2.07,2.84,9.53,9.53,0,0,0,2.24,1.61l-.48.16c-3.3,1.27-6.77,3-8.61,5.77a9.8,9.8,0,0,0-1,1.84l3.1-2.6c2.68-2.22,7.33-3.33,10.65-4a21.09,21.09,0,0,0,7.4-2.19,44.11,44.11,0,0,0,5.68-3.61,47.06,47.06,0,0,1,5.57-3.36,11.58,11.58,0,0,1,2.88-1c1-.18,2.11-.3,3.19-.38,2.94-.23-6.58.54,11.06-.86.55,0,1.74,1.13,1.74,1.13l-4,.6h0c-1.44.23-3.38.56-5,.91-.75.19-1.68.4-3.06.87a.66.66,0,0,0-.29.22c-.41.82,3,1.84,3,1.85h0a11.32,11.32,0,0,0,1.12.26c3.44.69,5.6-.25,7.28-2.62.06-.08.79.14.77.23-.79,2.65-1.74,4.33-7.19,5.77-6.07,1.6-8.86,3-11.18,4.53-.49.39-.92.77-.84.9a6.87,6.87,0,0,0,2.63,2.07,14,14,0,0,1,4.12,5.83,3.73,3.73,0,0,0,.64-1.59c1.35,1.77,3.15,4.58,3.4,7.2a3.91,3.91,0,0,0,1.65-1.68,28.14,28.14,0,0,1,1.69,9.6c2.14-1.69,2.11-3,1.77-4.6a6.33,6.33,0,0,1,.9,2.62,2.35,2.35,0,0,0,1.44-1.89,2.32,2.32,0,0,1-.24.43l-.24.36-.17-.43h0a4.2,4.2,0,0,0-.27-.85,2.56,2.56,0,0,0-.51-.75,2.78,2.78,0,0,1,.71.62,4.73,4.73,0,0,1,.32.46,1.9,1.9,0,0,0,.2-.37,3.31,3.31,0,0,0,.25-.77,3.65,3.65,0,0,0,.08-.74c0-.52-.09-.88-.09-.88a.08.08,0,0,0,0,0,.22.22,0,0,1,0-.08s0,.06,0,.1a3.13,3.13,0,0,1,.63,2.21c2.62-1.45.78-4.93.78-4.94,1.42,1.57,1.3,2.45,1.33,2.46a7.18,7.18,0,0,0,1-3.24,8.65,8.65,0,0,0,0-1.61,8.35,8.35,0,0,0-1-3l.49.38a3.94,3.94,0,0,1,1,1.37s1.33-2.68.87-4.58c.49,0,1.23,1.91,1.23,1.91.75-1.4,0-3.08-.29-5.08.15-1,2.83-2.08,4.2-4.25.37-.59,1.14-2.34,1.93-2.88a11.66,11.66,0,0,0-2.81,1.14c-.53.35-1.54.41-1.59.65-3,1.89-4.74,1.31-5.3,1.2a1.34,1.34,0,0,1-1-1.94,4.19,4.19,0,0,0,1.57.83,30.67,30.67,0,0,0,6.18-1.33l1.82-.68c.57-.12,1.12-.27,1.65-.43a7.53,7.53,0,0,0,1.55-.63A1.55,1.55,0,0,0,113.49,69.61ZM95,67.45A9.38,9.38,0,0,1,93,68l-.61.11.54-.62.08.07c1-.18,2.19-1.12,2.11-1.45-.18-.72-4.46.58-4.54.57l-.83-.1.77-.31a20.31,20.31,0,0,1,4.74-1.35c1.07-.06,1.33.37,1.39.64C96.75,66.17,96,67,95,67.45Zm2.21,23.68-.08.67-.32-.59L96.7,91a2.8,2.8,0,0,0-.71-.92l-.33-.3.43-.07a2.89,2.89,0,0,0,.64-.26.45.45,0,0,1,0-.35l.24-.64.17.66A7.1,7.1,0,0,1,97.19,91.13Zm2.26-3.75,0,.67-.37-.56a2.52,2.52,0,0,1-.15-.24A3.89,3.89,0,0,0,97.75,86l-.35-.27.43-.11c.11,0,.49-.27.6,0,.36.3.29-.93.3-1l.19-.65.22.64A9.73,9.73,0,0,1,99.45,87.38ZM104.85,66a6.93,6.93,0,0,0-2.22.45.86.86,0,0,1-.07-.21,1,1,0,0,1,.45-1c1.75-.3,2.7.36,2.88.75A9,9,0,0,0,104.85,66Z"/><path class="cls-2" d="M107.74,85.49a7.37,7.37,0,0,1-.16,1.43c-.12.31,0,.3-.13,0a4.27,4.27,0,0,0-.7-1.13c-.26-.32-.55-.62-.83-.92a5.79,5.79,0,0,1,.21,2.18,10.25,10.25,0,0,1-.53,2.26.52.52,0,0,0,0,.17,1.73,1.73,0,0,0-.08-.16,5.91,5.91,0,0,0-1.17-1.56c.07.15.13.31.2.47a11,11,0,0,1,.8,3.3,8.81,8.81,0,0,1-.06,1.78,6.61,6.61,0,0,1-.46,1.64,1.58,1.58,0,0,0-.1.25,1.85,1.85,0,0,0,0-.27,4.1,4.1,0,0,0-.44-1.48,9.73,9.73,0,0,0-.82-1.26c-.08-.1-.07.36,0,.71a7.09,7.09,0,0,1-.16,2.32,18.61,18.61,0,0,1-.73,2.29.46.46,0,0,0-.06.18.74.74,0,0,0-.07-.18,9.56,9.56,0,0,0-1.13-1.94L101,95.3a7.28,7.28,0,0,1-.19,1.37,1.18,1.18,0,0,1-.24.43l-.27-.22-1.17-.74.21-.6s.6.89.6.89l.58-1.67h0l.09-.26c.19-.5.39-1,.55-1.62a6.4,6.4,0,0,1,.43,1.18,10.93,10.93,0,0,0,1.61-2.55,8.58,8.58,0,0,0,.63-2.62,9.38,9.38,0,0,0,0-1.83l0-.19c.1,0,1.94-2.61,2.06-3.64a13.36,13.36,0,0,0,0-2.45,11.9,11.9,0,0,0-.34-2,2.09,2.09,0,0,1,.2.22,8.11,8.11,0,0,1,1.38,2.32,9.49,9.49,0,0,1,.6,2.75A12,12,0,0,1,107.74,85.49ZM63.46,70.41l1.29-.33c-1-.66-2-1.38-2.94-2.12-.7-.55-1.4-1.11-2.09-1.69s-1.36-1.18-2-1.79l-.15.14a41.12,41.12,0,0,0,3.76,3.94c.66.62,1.35,1.22,2.07,1.79Zm22.71-3.08L85,68c-1.62.92-3.13,1.94-4.64,2.9a32.29,32.29,0,0,1-4.57,2.54,10.51,10.51,0,0,1-1.18.44L74,74l-.59.12A6.83,6.83,0,0,1,71,74a11.76,11.76,0,0,1-1.4-.41l-1.7.74.1.06q.7.36,1.47.66l-.5.22a5.48,5.48,0,0,0-1.9,1.45l-.17.24-.09.12-.08.14c0,.08-.09.17-.14.26l-.12.27a2.78,2.78,0,0,0-.2,1.17h.08a6.61,6.61,0,0,1,1.4-1.56,1.49,1.49,0,0,1,.2-.15l.2-.15c.13-.1.28-.18.41-.28l.11-.07.11,0,.22-.12.22-.12.24-.09a10.61,10.61,0,0,1,2-.6l.26,0a7.51,7.51,0,0,0,1.9.1l.75-.08.72-.13a13.74,13.74,0,0,0,1.4-.37,22.36,22.36,0,0,0,2.62-1c.85-.4,1.67-.82,2.47-1.25,1.61-.86,3.17-1.73,4.74-2.5A29.22,29.22,0,0,1,89.56,69,12.44,12.44,0,0,1,86.17,67.33Zm12.94-9.59a3.89,3.89,0,0,1,.11.43,14.57,14.57,0,0,0,3.06,1.53,6.83,6.83,0,0,0-.23-1.11,7.59,7.59,0,0,0-.85-1.87l-.28-.41c-.09-.14-.2-.26-.3-.39a3.65,3.65,0,0,0-.31-.36l-.16-.18-.16-.17a11.22,11.22,0,0,0-2.94-2.11,16.15,16.15,0,0,0-3.24-1.24l-.1.27a16.7,16.7,0,0,1,2.7,1.92,11.49,11.49,0,0,1,2.08,2.37A5.64,5.64,0,0,1,99.11,57.74Z"/></svg>