<svg id="Layer_1" data-name="Layer 1" xmlns="http://www.w3.org/2000/svg" viewBox="0 0 504 144"><defs><style>.cls-1{fill:#122624;}.cls-2{fill:#8f7d60;}</style></defs><path class="cls-1" d="M172.55,69.21l-.14.07c-1.2-5.13-3.19-7-7.46-7h-5V74.68h4.39c4,0,4.87-1.12,5.39-3.33h.15v7.87h-.15c-.52-2.55-1.42-4-5.39-4H160V83c0,4.5.75,5.44,2.17,5.81v.15H155v-.15c1.13-.33,1.8-1.27,1.8-5.28V67.26c0-4-.67-5-1.8-5.29v-.15h17.25Z"/><path class="cls-1" d="M189.05,88.81v.11h-7.12v-.11c1.46-.45,1.91-1.08,1.91-4.12V75c0-3.26-.53-4.16-1.84-4.65l0-.07a13.2,13.2,0,0,0,5-1.39l.07.07a33.24,33.24,0,0,0-.34,6v9.67C186.76,87.65,187.36,88.44,189.05,88.81Zm5.88-19.34-.6,2.44h-.11a3.19,3.19,0,0,0-2.25-.64c-1.72,0-3.67,1-4.42,4l0,0c.34-3.86,2.66-6.37,5.48-6.37A3.44,3.44,0,0,1,194.93,69.47Z"/><path class="cls-1" d="M212.36,88.81v.11h-6.71v-.11c1.47-.45,1.92-1.08,1.92-4.12V75c0-3.26-.53-4.16-1.84-4.65l0-.07a13.09,13.09,0,0,0,5-1.39l.08.07a33.24,33.24,0,0,0-.34,6v9.67C210.49,87.76,211,88.44,212.36,88.81Zm-5.62-24.74a2.17,2.17,0,0,1,4.28,0,2.17,2.17,0,0,1-4.28,0Z"/><path class="cls-1" d="M243.37,87.91V88a13.46,13.46,0,0,0-4.69,1.16l0,0V76.18c0-4.83-2-6.78-5.17-6.78-3.45,0-6,3-6,9.48,0,5.77,2.33,8.54,5.77,8.54a5.29,5.29,0,0,0,4.58-3.07l0,0a6.61,6.61,0,0,1-6.15,4.76c-4.46,0-7.42-3.9-7.42-9.26,0-7.68,4.27-11,9.18-11A7,7,0,0,1,238.64,71V65.05c0-3.26-.56-4.2-1.87-4.65l.07-.11a12.83,12.83,0,0,0,5-1.35l0,0a37.53,37.53,0,0,0-.34,6.07V83.38C241.53,86.75,242.09,87.5,243.37,87.91Z"/><path class="cls-1" d="M271.59,84.58a7.41,7.41,0,0,1-7.19,4.57c-5.44,0-9.23-4.31-9.23-10.12,0-6,3.83-10.12,9-10.12a6.88,6.88,0,0,1,7.31,7.16,5.29,5.29,0,0,1-.15,1.39H258.17c0,5.92,3.49,9.33,8,9.33a6.56,6.56,0,0,0,5.32-2.29ZM258.17,77h10.46a7.4,7.4,0,0,0,.15-1.72c0-3.45-1.39-5.88-4.65-5.88S258.32,72.47,258.17,77Z"/><path class="cls-1" d="M289.21,88.81v.11h-6.78v-.11c1.46-.45,1.91-1.08,1.91-4.12V75c0-3.26-.53-4.16-1.84-4.65l0-.07a13.81,13.81,0,0,0,5-1.39l.07.07a33.24,33.24,0,0,0-.34,6v9.67C287.26,87.65,287.79,88.44,289.21,88.81Zm13.08,0v.11h-6.78v-.11c1.42-.37,2-1.16,2-4.12V76.37c0-3.83-1.77-5.74-4.69-5.74a5.55,5.55,0,0,0-4.76,3.08l0,0a6.85,6.85,0,0,1,6.37-4.76c3.79,0,6,2.59,6,6.41v9.37C300.38,87.73,300.83,88.36,302.29,88.81Z"/><path class="cls-1" d="M321.82,88.81v.11h-6.7v-.11c1.38-.45,1.83-1,1.83-4.12V75c0-3.26-.52-4.16-1.83-4.65l0-.07a13.2,13.2,0,0,0,5-1.39l.07.07a33.24,33.24,0,0,0-.34,6v9.67C319.87,87.65,320.4,88.44,321.82,88.81Zm12.71,0v.11h-6.86v-.11c1.43-.37,2-1.16,2-4.12V76.37c0-3.83-1.61-5.74-4.27-5.74a5.55,5.55,0,0,0-4.73,3.08l0,0a6.84,6.84,0,0,1,6.3-4.76c3.6,0,5.62,2.59,5.62,6.41v9.37C332.54,87.61,333,88.36,334.53,88.81Zm12.56,0v.11h-6.71v-.11c1.42-.37,2-1.16,2-4.12V76.37c0-3.83-1.62-5.74-4.28-5.74a5.53,5.53,0,0,0-4.72,3.08l0,0a6.79,6.79,0,0,1,6.3-4.76c3.56,0,5.62,2.59,5.62,6.41v9.37C345.25,87.84,345.7,88.36,347.09,88.81Z"/><path class="cls-1" d="M374.83,87.91V88a13.47,13.47,0,0,0-4.65,1.16l-.07,0V78.58l-7.91,2.29a4.46,4.46,0,0,0-.56,2.24c0,3,1.87,4.24,3.93,4.24a4.08,4.08,0,0,0,3.86-2.25l.08,0a5.35,5.35,0,0,1-5.36,4,5.05,5.05,0,0,1-5.36-5.1,4.8,4.8,0,0,1,.9-2.92L370.11,78V76.74c0-5.21-1.39-7.34-4.31-7.34-2.33,0-4.69,1.76-4.84,6.86l-.07,0-1.17-5.1a9.14,9.14,0,0,1,6.08-2.28c4.46,0,7.23,2.66,7.23,8v6.45C373,86.75,373.56,87.5,374.83,87.91Z"/><path class="cls-1" d="M393.2,88.81v.11h-6.75v-.11c1.43-.45,1.88-1.08,1.88-4.12V65.05c0-3.26-.53-4.2-1.84-4.65l0-.11a12.44,12.44,0,0,0,5-1.35l.08,0a38.89,38.89,0,0,0-.34,6.07V84.69C391.25,87.76,391.77,88.44,393.2,88.81Zm13,0v.11h-5.09a1.05,1.05,0,0,0-.3-.89l-8.18-9.3,5.48-5.44c1.72-1.72,1.68-3.71-1-4v-.12h7v.12a10.78,10.78,0,0,0-4,2.84l-5,4.91,8.25,9.56C404.59,88.1,405.19,88.59,406.24,88.81Z"/><path class="cls-1" d="M430.76,84.58a7.41,7.41,0,0,1-7.2,4.57c-5.43,0-9.22-4.31-9.22-10.12,0-6,3.82-10.12,9-10.12a6.88,6.88,0,0,1,7.31,7.16,5.76,5.76,0,0,1-.15,1.39H417.34c0,5.92,3.49,9.33,8,9.33a6.58,6.58,0,0,0,5.33-2.29ZM417.34,77H427.8a7.4,7.4,0,0,0,.15-1.72c0-3.45-1.39-5.88-4.65-5.88S417.49,72.47,417.34,77Z"/><path class="cls-1" d="M449.47,88.81v.11h-7.13v-.11c1.47-.45,1.92-1.08,1.92-4.12V75c0-3.26-.53-4.16-1.84-4.65l0-.07a13.09,13.09,0,0,0,5-1.39l.08.07a33.24,33.24,0,0,0-.34,6v9.67C447.18,87.65,447.78,88.44,449.47,88.81Zm5.88-19.34-.6,2.44h-.11a3.19,3.19,0,0,0-2.25-.64c-1.72,0-3.67,1-4.42,4l0,0c.34-3.86,2.66-6.37,5.47-6.37A3.45,3.45,0,0,1,455.35,69.47Z"/><path class="cls-2" d="M113.89,69.61a1.17,1.17,0,0,0,1-1.42,1.41,1.41,0,0,0,0-.18,5,5,0,0,0,.37-.76c.19-.47.3-1.06,0-1.38a6.07,6.07,0,0,0-1.79-.57l-.56-.12-.06,0,.19.26a1.74,1.74,0,0,1,.24.62,1.83,1.83,0,0,1,0,.66l-.75-.17a1.6,1.6,0,0,0-.07-.57,1.75,1.75,0,0,0-.26-.51,1.9,1.9,0,0,0-.42-.38,3,3,0,0,0-.51-.25c-1.92-.39-3.59-.64-4.92-.86.14-.78.3-2.55.52-3.3A16.75,16.75,0,0,1,108,57.83a7.2,7.2,0,0,1,5-3.3,4.26,4.26,0,0,0-.84-.26,5.38,5.38,0,0,0-2.58.48,7,7,0,0,0-1.51,1,13.23,13.23,0,0,0-1.91,1.91h-.1a10.16,10.16,0,0,0-.7-1.4A12.72,12.72,0,0,0,101,51.8a42.84,42.84,0,0,1,3.36,5,4,4,0,0,1,.27,3.33c-.18.45-.61,2-.61,2-.34,0-1.38.4-6.16-3.4a25.74,25.74,0,0,1-6.14-5.54,7.15,7.15,0,0,1-1.26-5.07c.07-.9.39-2.79.39-2.79A6.69,6.69,0,0,0,89.6,51c0,.14.06.27.1.4a4.67,4.67,0,0,1-.08,1.31,1.82,1.82,0,0,1-1,1.24l-.32.17a5.86,5.86,0,0,0-1.21,1.29c1.58-.75,2.93-1.11,4.63-.13a29.53,29.53,0,0,0,4.66,5.22,31.64,31.64,0,0,0-3.9.18c-1.74.18-3.46.45-5.16.74-.42-3.71-2.5-6.6-6.08-7.47a13.8,13.8,0,0,0-3.53,0,14.63,14.63,0,0,1,1.65.36A7.11,7.11,0,0,1,84.24,58a9.24,9.24,0,0,1,.8,3.72c-.48.07-1,.16-1.46.25a9.63,9.63,0,0,0-1,.25l-.2,0c-1.08.19-2.17.35-3.26.48a18.35,18.35,0,0,0-1.32-3.86c-1.58-3.1-3.84-5.31-7.34-5.36a8.36,8.36,0,0,0-2.29.28,9.75,9.75,0,0,0-2,1c.35-.09.71-.17,1.06-.23,4.53-.8,7,1.12,8.68,5.11a20.45,20.45,0,0,1,.83,3.05H75.19c-.71,0-1.42,0-2.13,0l-1.07,0-.25,0a9.11,9.11,0,0,1-3.7-1.5,8.39,8.39,0,0,1-1.73-1.69,11.52,11.52,0,0,1-1.26-2.16,12.27,12.27,0,0,0,.8,2.46,7.63,7.63,0,0,0,1.41,1.8c.15.89-.39,1.54-1,2.26a4.81,4.81,0,0,0-1.5,1.17,2.6,2.6,0,0,0-.55,1.07,2.9,2.9,0,0,0,.19,1.16,3.72,3.72,0,0,1,1.08-1.55,4,4,0,0,1,.75-.52,6.18,6.18,0,0,1,.87-.38A11.55,11.55,0,0,1,71,64.25a58.36,58.36,0,0,1,6.47.52c-1,.63-2,1.3-3,2C72,68.42,68.81,70.55,66,71.46A8.66,8.66,0,0,1,57.57,70a15.37,15.37,0,0,1-2.17-2.24,24.65,24.65,0,0,1-1.86-2.69,9.55,9.55,0,0,0,.22,1.72,11,11,0,0,0,.65,1.6,10.46,10.46,0,0,0,2.06,2.84,10,10,0,0,0,2.24,1.61l-.48.16c-3.3,1.27-6.77,3-8.61,5.77a9.8,9.8,0,0,0-1,1.84s2.09-1.76,3.11-2.6c2.68-2.22,7.32-3.33,10.65-4a21.16,21.16,0,0,0,7.41-2.19,44,44,0,0,0,5.67-3.61,48,48,0,0,1,5.58-3.36,11.58,11.58,0,0,1,2.88-1c1-.18,2.11-.3,3.2-.38,2.94-.23-6.59.54,11.06-.86.55,0,1.74,1.13,1.74,1.13l-4,.6h0c-1.45.23-3.38.56-5,.91-.75.19-1.68.4-3.07.87a.66.66,0,0,0-.29.22c-.4.82,3,1.84,3,1.85h0a11.5,11.5,0,0,0,1.13.26c3.44.69,5.6-.25,7.28-2.62.06-.08.79.14.77.23-.79,2.65-1.74,4.33-7.2,5.77-6.07,1.6-8.86,3-11.18,4.53-.49.39-.92.77-.84.9a6.87,6.87,0,0,0,2.63,2.07,14,14,0,0,1,4.12,5.83,3.73,3.73,0,0,0,.64-1.59c1.36,1.77,3.15,4.58,3.41,7.2a3.91,3.91,0,0,0,1.65-1.68,28.38,28.38,0,0,1,1.69,9.6c2.14-1.69,2.1-3,1.76-4.6a6.26,6.26,0,0,1,.91,2.62,2.35,2.35,0,0,0,1.44-1.89,2.32,2.32,0,0,1-.24.43l-.24.36-.17-.43h0a4.2,4.2,0,0,0-.27-.85,2.56,2.56,0,0,0-.51-.75,2.78,2.78,0,0,1,.71.62,4.73,4.73,0,0,1,.32.46,1.9,1.9,0,0,0,.2-.37,3.31,3.31,0,0,0,.25-.77,3.65,3.65,0,0,0,.08-.74c0-.52-.09-.88-.09-.88l0,0a.22.22,0,0,1,0-.08.3.3,0,0,1,0,.1,3.13,3.13,0,0,1,.63,2.21c2.62-1.45.78-4.93.78-4.94,1.42,1.57,1.31,2.45,1.34,2.46a7.39,7.39,0,0,0,1-3.24,8.65,8.65,0,0,0,0-1.61,8.14,8.14,0,0,0-1-3l.49.38a3.63,3.63,0,0,1,1,1.37s1.33-2.68.87-4.58c.49,0,1.23,1.91,1.23,1.91.76-1.4,0-3.08-.29-5.08.16-1,2.83-2.08,4.2-4.25.37-.59,1.15-2.34,1.94-2.88a11.88,11.88,0,0,0-2.82,1.14c-.52.35-1.53.41-1.58.65-3,1.89-4.74,1.31-5.31,1.2a1.34,1.34,0,0,1-1-1.94,4.19,4.19,0,0,0,1.57.83A30.73,30.73,0,0,0,108,71.32l1.82-.68c.56-.12,1.12-.27,1.65-.43a7.53,7.53,0,0,0,1.55-.63A1.55,1.55,0,0,0,113.89,69.61ZM95.37,67.45a9.33,9.33,0,0,1-2,.54l-.6.11.54-.62.07.07c1-.18,2.2-1.12,2.11-1.45-.17-.72-4.46.58-4.54.57l-.83-.1.77-.31a20.52,20.52,0,0,1,4.75-1.35c1.07-.06,1.33.37,1.39.64C97.14,66.17,96.41,67,95.37,67.45Zm2.21,23.68-.08.67-.32-.59a1.62,1.62,0,0,1-.1-.18,2.73,2.73,0,0,0-.7-.92l-.33-.3.43-.07a2.89,2.89,0,0,0,.64-.26.45.45,0,0,1,0-.35l.24-.64.17.66A7.1,7.1,0,0,1,97.58,91.13Zm2.26-3.75,0,.67-.38-.56a2.52,2.52,0,0,1-.15-.24A3.89,3.89,0,0,0,98.14,86l-.35-.27.43-.11c.11,0,.49-.27.6,0,.36.3.29-.93.3-1l.19-.65.22.64A9.73,9.73,0,0,1,99.84,87.38ZM105.25,66a7,7,0,0,0-2.23.45,1.72,1.72,0,0,1-.07-.21,1.05,1.05,0,0,1,.46-1c1.74-.3,2.7.36,2.87.75A8.84,8.84,0,0,0,105.25,66Z"/><path class="cls-2" d="M108.14,85.49a8.23,8.23,0,0,1-.16,1.43c-.12.31,0,.3-.13,0a4.27,4.27,0,0,0-.7-1.13c-.27-.32-.55-.62-.84-.92a5.79,5.79,0,0,1,.21,2.18,9.71,9.71,0,0,1-.53,2.26.52.52,0,0,0,0,.17.56.56,0,0,0-.08-.16,5.7,5.7,0,0,0-1.17-1.56c.07.15.14.31.2.47a10.44,10.44,0,0,1,.8,3.3,8.14,8.14,0,0,1-.06,1.78,6.6,6.6,0,0,1-.45,1.64,1.3,1.3,0,0,0-.11.25,1.1,1.1,0,0,0,0-.27,4.32,4.32,0,0,0-.45-1.48,8.78,8.78,0,0,0-.82-1.26c-.07-.1-.06.36,0,.71a6.83,6.83,0,0,1-.16,2.32,17,17,0,0,1-.73,2.29.94.94,0,0,0-.06.18.42.42,0,0,0-.07-.18,9.12,9.12,0,0,0-1.13-1.94l-.19-.28a7.28,7.28,0,0,1-.19,1.37,1,1,0,0,1-.24.43l-.27-.22-1.17-.74.21-.6a10.71,10.71,0,0,1,.6.89l.59-1.67h0l.09-.26c.19-.5.39-1,.55-1.62a6.4,6.4,0,0,1,.43,1.18,11.17,11.17,0,0,0,1.62-2.55,8.91,8.91,0,0,0,.62-2.62,8.66,8.66,0,0,0,0-1.83l0-.19c.1,0,2-2.61,2.06-3.64a13.17,13.17,0,0,0,0-2.45,11.89,11.89,0,0,0-.35-2,2.09,2.09,0,0,1,.2.22,7.91,7.91,0,0,1,1.39,2.32,9.83,9.83,0,0,1,.6,2.75A12,12,0,0,1,108.14,85.49ZM63.83,70.41l1.29-.33c-1-.66-2-1.38-2.94-2.12-.71-.55-1.41-1.11-2.09-1.69s-1.36-1.18-2-1.79l-.16.14a42.4,42.4,0,0,0,3.76,3.94c.67.62,1.36,1.22,2.08,1.79Zm22.72-3.08L85.36,68c-1.62.92-3.14,1.94-4.65,2.9a32.29,32.29,0,0,1-4.57,2.54,10.51,10.51,0,0,1-1.18.44l-.6.17-.59.12A6.88,6.88,0,0,1,71.35,74,12.33,12.33,0,0,1,70,73.6l-1.7.74.1.06c.48.24,1,.46,1.47.66l-.5.22a5.35,5.35,0,0,0-1.89,1.45c-.07.08-.12.16-.18.24l-.09.12-.07.14a2.2,2.2,0,0,0-.15.26l-.12.27a2.78,2.78,0,0,0-.2,1.17h.08a6.61,6.61,0,0,1,1.4-1.56,1.49,1.49,0,0,1,.2-.15l.2-.15c.13-.1.28-.18.42-.28l.1-.07.11,0,.23-.12.22-.12.23-.09a10.85,10.85,0,0,1,2-.6l.27,0a7.48,7.48,0,0,0,1.9.1l.74-.08.72-.13a12.49,12.49,0,0,0,1.4-.37,21.84,21.84,0,0,0,2.63-1c.85-.4,1.67-.82,2.47-1.25,1.61-.86,3.17-1.73,4.74-2.5A30.15,30.15,0,0,1,90,69,12.51,12.51,0,0,1,86.55,67.33Zm13-9.59a3.89,3.89,0,0,1,.11.43,14.57,14.57,0,0,0,3.06,1.53,6.83,6.83,0,0,0-.23-1.11,7.59,7.59,0,0,0-.85-1.87l-.28-.41c-.09-.14-.2-.26-.3-.39a2.67,2.67,0,0,0-.31-.36l-.16-.18-.16-.17a11.22,11.22,0,0,0-2.94-2.11,16.23,16.23,0,0,0-3.25-1.24l-.1.27a16.35,16.35,0,0,1,2.71,1.92,11.49,11.49,0,0,1,2.08,2.37A5.64,5.64,0,0,1,99.5,57.74Z"/></svg>