<svg id="Layer_1" data-name="Layer 1" xmlns="http://www.w3.org/2000/svg" viewBox="0 0 90 90"><defs><style>.cls-1{fill:#8f7d60;}</style></defs><path class="cls-1" d="M60.56,68.43c.26-.39,0-1.07,1.14-1.72a.82.82,0,0,0,.68-.4c1.28-2.33,6.56-6.83,7-7.71,1.8-3.46-3.58-3.86-6.34-4.4h0a3.88,3.88,0,0,1-.31.26l0,0-.36.24a2.2,2.2,0,0,0-.25.17,2.25,2.25,0,0,0-.52.54,6.21,6.21,0,0,0-.77,1.66l-.25-.1-.8-.32-.11,0a5.61,5.61,0,0,0-.74.34l-.1.05v.06a.18.18,0,0,0,0,.16s0,.07,0,.11l.22.18c.25.24.69.58,1.38,1.11l5.33-.41,0,0,0,.07-.18.27v0l-.05.08,0,.08-.06.08,0,.05-.08.12,0,.06-.06.09-.07.11-.07.1-.06.09-.07.11-.09.13,0,.08-.1.15-.07.1,0,0-.25.39-.05.07-.07.1-.1.16-.13.19,0,.06-.14.21,0,.06-.12.18-.07.11-.1.15-.09.13-.11.16-.08.12-.12.17-.07.1-.13.2-.06.08-.13.2-.06.09-.13.19-.08.1-.12.18-.07.1-.13.18,0,.06-.15.22,0,0c-.17.25-.34.5-.51.73h0c-.13.19-.25.36-.38.53s-.24.24-.34.24H60.3a.31.31,0,0,0-.12,0,1.36,1.36,0,0,1-.21.1l0,0-.21.08-.06,0-.2.06-.23.07h0c-.46.15-.81.32-.67.79s0,2.17.35,2.76h0l0,.06h0a.12.12,0,0,0,0,.05h0l0,0h.15l.06,0h0l.09,0h0C60.87,68.87,60,69.29,60.56,68.43Z"/><path class="cls-1" d="M15.56,79.79l.37.23a1.94,1.94,0,0,1,.57.57c1.26.22,3.75.37,2.88-.58a2.92,2.92,0,0,1-.81-1.37.61.61,0,0,0-.29-.43l-.93-.59.11-6.38a2.64,2.64,0,0,1,.12-.67.75.75,0,0,0,.05-.16l0-.06c0-.07.05-.14.08-.22v0a2,2,0,0,1,.12-.26.59.59,0,0,0,0-.08l.11-.2.06-.1.12-.19a.83.83,0,0,1,.08-.12l.14-.19.09-.12a1.24,1.24,0,0,1,.18-.22l.09-.11c.09-.11.2-.22.31-.33h0l-.63.26a4.82,4.82,0,0,0-2.7,2.85l-.07.23a.25.25,0,0,0,0,.07,1.43,1.43,0,0,0-.05.2l-.09,4.89c.07.74,0,1.43,0,1.89a2.82,2.82,0,0,1,0,.71A2.8,2.8,0,0,0,15.56,79.79Z"/><path class="cls-1" d="M65.34,53.63l.24.2a.9.9,0,0,0,.22-.4A6.85,6.85,0,0,0,66,52.18l.17.25A11.57,11.57,0,0,1,67,53.74a4,4,0,0,1,.22.47.86.86,0,0,1,.06.16.4.4,0,0,1,.06-.16A18.24,18.24,0,0,0,68,52.12,6.24,6.24,0,0,0,68.12,50c0-.32,0-.74,0-.65a9.09,9.09,0,0,1,.75,1.15,3.91,3.91,0,0,1,.41,1.36c0,.17,0,.25,0,.25a.76.76,0,0,1,.09-.23,6,6,0,0,0,.42-1.51,8,8,0,0,0,.06-1.63,10,10,0,0,0-.74-3L69,45.28a5.46,5.46,0,0,1,1.07,1.43.55.55,0,0,1,.07.15.39.39,0,0,1,0-.15,9.49,9.49,0,0,0,.48-2.07,5.27,5.27,0,0,0-.18-2c.25.28.51.55.76.84a4.1,4.1,0,0,1,.64,1c.11.26,0,.27.12,0a8.08,8.08,0,0,0,.15-1.31q0-.68,0-1.35a9.06,9.06,0,0,0-.55-2.52,7.25,7.25,0,0,0-1.27-2.12l-.18-.2a10.89,10.89,0,0,1,.31,1.87,12.8,12.8,0,0,1,0,2.23,11.54,11.54,0,0,1-1.88,3.34,1.1,1.1,0,0,0,0,.18,8.51,8.51,0,0,1,0,1.67A7.64,7.64,0,0,1,68,48.69,9.89,9.89,0,0,1,66.53,51a5.92,5.92,0,0,0-.4-1.09c-.1.35-.21.7-.33,1l-.25.7h0L65,53.21,64.89,53l0-.06-.32-.48s-.06-.08-.07-.08l-.19.55h0Z"/><path class="cls-1" d="M52,26.26a4.06,4.06,0,0,1-.3-.35l-.43.24C49.8,27,48.41,27.92,47,28.8a29.4,29.4,0,0,1-4.19,2.32,10,10,0,0,1-1.08.41c-.18,0-.36.11-.55.15a3.7,3.7,0,0,1-.54.11,6.41,6.41,0,0,1-2.21-.13c-.27-.06-.55-.14-.82-.22a7.42,7.42,0,0,1-1.62.73c.34.16.68.32,1,.45-.16.07-.31.13-.46.21a5,5,0,0,0-1.73,1.32l-.17.22-.08.12-.07.12-.13.24c0,.08-.07.17-.11.25a2.42,2.42,0,0,0-.18,1.06l.07,0a6.13,6.13,0,0,1,1.28-1.43l.18-.14.19-.14c.12-.09.26-.16.38-.25l.1-.06.1-.06.2-.1.21-.11.21-.09a10.45,10.45,0,0,1,1.8-.55l.24,0a6.69,6.69,0,0,0,1.74.09l.68-.07q.33,0,.66-.12a11.5,11.5,0,0,0,1.28-.34,22,22,0,0,0,2.41-1c.77-.36,1.52-.75,2.26-1.15,1.47-.78,2.9-1.58,4.34-2.28.49-.24,1-.46,1.47-.67A9,9,0,0,1,52,26.26Z"/><path class="cls-1" d="M62.34,13.44a13.63,13.63,0,0,0-3-1.13l-.09.24a15.2,15.2,0,0,1,2.48,1.76,10.74,10.74,0,0,1,1.91,2.17,5.54,5.54,0,0,1,.57,1.21,2.74,2.74,0,0,1,.09.39,13.55,13.55,0,0,0,2.8,1.4,5.77,5.77,0,0,0-.21-1,7,7,0,0,0-.77-1.71l-.26-.38c-.08-.12-.18-.23-.27-.35a3.11,3.11,0,0,0-.29-.33l-.14-.17L65,15.37A10.34,10.34,0,0,0,62.34,13.44Z"/><path class="cls-1" d="M26.15,24a38,38,0,0,0,3.45,3.61c.61.57,1.24,1.11,1.9,1.63l.07.06,1.18-.3c-.92-.6-1.81-1.26-2.69-1.94-.65-.5-1.29-1-1.91-1.55s-1.25-1.08-1.85-1.64Z"/><path class="cls-1" d="M61.62,81.47l-1.33-1.28L60.15,79l-1.24-1.06-.12,0-2.88-.66-.42,0-2,1.06s-.48.86-.85,1A13.08,13.08,0,0,0,51,80.69l-.38.75.78,0Z"/><path class="cls-1" d="M62.46,48.31l-.07.61-.3-.54L62,48.22a2.51,2.51,0,0,0-.65-.85l-.29-.27,1-.05c.09,0,0-.53,0-.57l.22-.59.16.61A6.17,6.17,0,0,1,62.46,48.31Z"/><path class="cls-1" d="M64.53,44.87l0,.62L64.17,45,64,44.76A3.71,3.71,0,0,0,63,43.6l-.32-.24,1.17-.21c.11,0,0-.79.05-.83l.16-.6.21.59A8.84,8.84,0,0,1,64.53,44.87Z"/><path class="cls-1" d="M78.65,25.19A5.7,5.7,0,0,0,77,24.66l-.52-.11h0l-.3-.06a2.45,2.45,0,0,1,.4.39,1.83,1.83,0,0,1,.26.5,1.37,1.37,0,0,1,0,.57l-.53-.11a1.12,1.12,0,0,0-.09-.47A1.56,1.56,0,0,0,76,25a1.93,1.93,0,0,0-.39-.3l-.22-.11-.23-.1L73.78,24c-1.77-.36-2.06-.4-3.28-.6.12-.72.27-2.45.47-3.13a15.56,15.56,0,0,1,1-2.6,6.6,6.6,0,0,1,4.62-3,3.53,3.53,0,0,0-.77-.24,5.09,5.09,0,0,0-2.37.44,6.83,6.83,0,0,0-1.38.87,12.07,12.07,0,0,0-1.75,1.75l-.09,0a8.87,8.87,0,0,0-.64-1.27,11.63,11.63,0,0,0-4.06-4,39,39,0,0,1,3.08,4.55,3.68,3.68,0,0,1,.25,3.05c-.17.41-.56,1.8-.56,1.8-.31,0-1.27.36-5.64-3.11a23.73,23.73,0,0,1-5.62-5.07,6.52,6.52,0,0,1-1.15-4.64c.06-.83.35-2.56.35-2.56a6.15,6.15,0,0,0-1.12,5.2c0,.13.06.25.1.37a3,3,0,0,1-.51,2.15,3.12,3.12,0,0,0-.77.34,5.33,5.33,0,0,0-1.1,1.18c1.45-.69,2.68-1,4.24-.12a26.75,26.75,0,0,0,4.26,4.77,30,30,0,0,0-3.56.17c-1.6.17-3.17.41-4.73.68-.39-3.39-2.29-6.05-5.57-6.83a12.15,12.15,0,0,0-3.23,0,12.84,12.84,0,0,1,1.52.33,6.51,6.51,0,0,1,4.45,3.36,8.72,8.72,0,0,1,.74,3.4c-.45.07-.9.14-1.34.23a8.28,8.28,0,0,0-.89.23l-.17,0c-1,.17-2,.31-3,.44a17.38,17.38,0,0,0-1.2-3.54c-1.46-2.84-3.53-4.86-6.73-4.9a7.67,7.67,0,0,0-2.09.25,9.1,9.1,0,0,0-1.83.94,8,8,0,0,1,1-.21c4.15-.73,6.45,1,7.94,4.67a18.83,18.83,0,0,1,.76,2.79H40l-1,0-.23,0a8.28,8.28,0,0,1-3.39-1.38,7.2,7.2,0,0,1-1.58-1.54,10.16,10.16,0,0,1-1.15-2,11.3,11.3,0,0,0,.73,2.24,6.63,6.63,0,0,0,1.29,1.65c.13.82-.36,1.41-1,2.07a4.43,4.43,0,0,0-1.38,1.07,2.54,2.54,0,0,0-.5,1,2.69,2.69,0,0,0,.17,1.06A3.38,3.38,0,0,1,33,25a3.7,3.7,0,0,1,.69-.48,5.23,5.23,0,0,1,.8-.35,10.34,10.34,0,0,1,3.58-.57,51,51,0,0,1,5.92.47l-.94.61-.09.13c-.19.13-.38.26-.58.38a1.23,1.23,0,0,0-.29.13h0l-.79.53C39,27.41,36.13,29.37,33.6,30.2a7.93,7.93,0,0,1-7.76-1.35,13.35,13.35,0,0,1-2-2.05,22.26,22.26,0,0,1-1.7-2.46,8.4,8.4,0,0,0,.2,1.58,10.87,10.87,0,0,0,.59,1.46A9.78,9.78,0,0,0,24.83,30a9,9,0,0,0,2.06,1.48l-.44.14c-3,1.16-6.2,2.71-7.89,5.29a10,10,0,0,0-.89,1.68l2.85-2.38c2.45-2,6.7-3,9.75-3.63a19.49,19.49,0,0,0,6.78-2,40.45,40.45,0,0,0,5.19-3.3,43.57,43.57,0,0,1,5.11-3.08A10.89,10.89,0,0,1,50,23.26c.95-.16,1.93-.27,2.92-.34,1.22-.1,2.38-.13,3.54-.15,2.09-.35,4.64-.7,7.39-.92.51,0,1.77,1.38,1.77,1.38s-4.46.55-4.66.59h0c-1.33.21-3.1.51-4.61.83-.69.18-1.54.37-2.81.8a.53.53,0,0,0-.26.21c-.37.75,2.73,1.68,2.74,1.68h0a7.8,7.8,0,0,0,1,.24c3.14.64,5.12-.22,6.66-2.39,0-.08.72.13.71.21-.73,2.42-1.6,4-6.59,5.28a36.36,36.36,0,0,0-6.25,2.12s-2.9,2.15-3.41,3.09-1.29,6.22-1.37,5.48-.32-4.72,0-5.72a.61.61,0,0,1,0-.12l-.22-.08c-2.58,1.74-5.08,3.6-12.63,6-3.37,1.06-4.69.6-10.87.61-2.43,0-7,2.76-9.06,4.65l.13-.18a4.66,4.66,0,0,0-2.28.08c-1,.37-1.11,4.05-.85,4s.85-1,.85-1l.61-.81c.15-.25-.11.22-.17.33-1.5,3.11,1.34,3.7.72,6.44,0,0,2.65,2.59,2.56,3.47s-.91,4.55-2.41,6l.11-.2c.13-.25.25-.51.36-.77-.11.26-.23.52-.36.77-.93,1.77-2.88,3.9-2.4,5.62a79.48,79.48,0,0,1,1.54,11c.05.56-.65,1.92.56,2.18s4.44.53,3.42-.58a3.21,3.21,0,0,1-.88-1.48.73.73,0,0,0-.3-.47l-1-.63.16-8.72s1.42-4.06,4.74-4.31c2.41-.19,6.11-3.84,5.93-7.92a26.89,26.89,0,0,0-1.42-8.19s1.18-.37,3.25-2.85c-.58,3.26-2.35,5.15.78,9.39A31.49,31.49,0,0,0,34,57.61l0,.11c1.38-.33,2.48-1.61,6.2-1.06a20.8,20.8,0,0,0,6.68,0l-.42,0c-.63-.05-3.13-.64-3.13-.64s6.34.4,8.11-2.12v-.09c-.93-.57-.95-.76-1.61-1.14-3.6-2-1.92-7.48-1.92-7.48s.46,4.64.5,5.3,3.1,2.35,3.1,2.35,1.6,1.77,1.19,1.66c0,0,0,0,0,0a24.5,24.5,0,0,1,2.06,6.81,4.37,4.37,0,0,1,.07,2.11c-1,.07-.48,3.51-.48,3.51l.5-.28c-.42.43,0,1.52,0,1.52a.57.57,0,0,1,.37-.29c.42,1,.91,3,.59,7.93l1.64.3,1.47.27c.88.25.34-.59.08-1.44s-1.07-1-1.13-1.4-.06-2.54-.14-3.15a9,9,0,0,1-.06-1.16l0,0a1.69,1.69,0,0,1,.17-1.57,25.4,25.4,0,0,0,.35-6.38c-.34-3-.93-5.53-.15-5.67a3.71,3.71,0,0,0,.13-2.39c.19,0,.79-.15,1.64,2.1,2-1.54,1.93-2.75,1.62-4.21a5.83,5.83,0,0,1,.83,2.4c1.41-.46,1.41-2.33,1.44-3.59a7.69,7.69,0,0,0-.09-.81l0,0a.22.22,0,0,1,0-.08s0,.06,0,.09a2.78,2.78,0,0,1,.57,2c2.4-1.32.72-4.5.72-4.52a3.68,3.68,0,0,1,1.22,2.26,6.62,6.62,0,0,0,.94-3,7.27,7.27,0,0,0,0-1.48,7.47,7.47,0,0,0-1-2.73l.45.35a3.39,3.39,0,0,1,1,1.25s1.22-2.45.8-4.19c.45,0,1.12,1.75,1.12,1.75.53-1,.24-2.08,0-3.39a2.38,2.38,0,0,1-.09-.44c0-.26-.1-.53-.14-.81A1,1,0,0,0,69,36l.49-.38a10.19,10.19,0,0,1,1.07-.9A13.31,13.31,0,0,0,72,33.36s0,0,0,.09A6.16,6.16,0,0,0,73,32.3c.34-.53,1-2.14,1.77-2.62a10.54,10.54,0,0,0-2.57,1c-.48.32-1.41.37-1.45.59-2.78,1.73-4.34,1.2-4.86,1.1a1.22,1.22,0,0,1-.92-1.77,3.9,3.9,0,0,0,1.43.75A27.85,27.85,0,0,0,72,30.18l1.66-.63a13.89,13.89,0,0,0,1.51-.39,6.85,6.85,0,0,0,1.42-.58,1.4,1.4,0,0,0,.76,0,1.11,1.11,0,0,0,1-1.3c0-.1,0-.16,0-.16a4.78,4.78,0,0,0,.34-.7C78.84,26,79,25.48,78.65,25.19ZM60.37,26.45a7.93,7.93,0,0,1-1.82.48,15.26,15.26,0,0,1-3-1.17,25.73,25.73,0,0,1,5.11-1.25C62.45,24.4,61.81,25.86,60.37,26.45Zm9-1.17a5.56,5.56,0,0,0-1.78.35l-.06-.16a.85.85,0,0,1,.37-.79c1.39-.24,2.15.28,2.29.6A5.6,5.6,0,0,0,69.41,25.28Z"/></svg>